<svg xmlns="http://www.w3.org/2000/svg" version="1.1" xmlns:xlink="http://www.w3.org/1999/xlink" xmlns:svgjs="http://svgjs.dev/svgjs" width="1500" height="1500" viewBox="0 0 1500 1500"><rect width="1500" height="1500" fill="#000000"></rect><g transform="matrix(0.6666666666666666,0,0,0.6666666666666666,249.39393939393938,646.6902101943529)"><svg viewBox="0 0 396 82" data-background-color="#000000" preserveAspectRatio="xMidYMid meet" height="310" width="1500" xmlns="http://www.w3.org/2000/svg" xmlns:xlink="http://www.w3.org/1999/xlink"><g id="tight-bounds" transform="matrix(1,0,0,1,0.2400000000000091,-0.009341464211019002)"><svg viewBox="0 0 395.52 82.01868292842205" height="82.01868292842205" width="395.52"><g><svg viewBox="0 0 522.3402896480434 108.31731036959701" height="82.01868292842205" width="395.52"><g transform="matrix(1,0,0,1,126.82028964804346,14.970047959908129)"><svg viewBox="0 0 395.52 78.37721444978075" height="78.37721444978075" width="395.52"><g id="textblocktransform"><svg viewBox="0 0 395.52 78.37721444978075" height="78.37721444978075" width="395.52" id="textblock"><g><svg viewBox="0 0 395.52 78.37721444978075" height="78.37721444978075" width="395.52"><g transform="matrix(1,0,0,1,0,0)"><svg width="395.52" viewBox="4 -40.45 239.43 47.45" height="78.37721444978075" data-palette-color="#877eff"><path d="M13.3-22.85L22.95-22.85Q24.25-22.85 25.65-22.3 27.05-21.75 28.35-20.85L28.35-20.85 28.3-20.85Q29.6-19.95 30.3-18.4 31-16.85 31-14.85L31-14.85 31-8Q31-3.95 28.3-1.95L28.3-1.95Q27-1 25.63-0.48 24.25 0.05 22.95 0.05L22.95 0.05 12.05 0.05Q10.75 0.05 9.38-0.48 8-1 6.7-1.95L6.7-1.95Q4-3.95 4-8L4-8 4-11.3Q4-13.65 6.95-13.65L6.95-13.65Q9.95-13.65 9.95-11.3L9.95-11.3 9.95-8.4Q9.95-7.1 10.7-6.05 11.45-5 13.3-5L13.3-5 21.7-5Q23.55-5 24.3-6.05 25.05-7.1 25.05-8.4L25.05-8.4 25.05-14.45Q25.05-15.7 24.3-16.78 23.55-17.85 21.7-17.85L21.7-17.85 12.05-17.85Q9.45-17.85 6.7-19.75L6.7-19.75Q4-21.85 4-25.8L4-25.8 4-31.75Q4-33.75 4.7-35.27 5.4-36.8 6.7-37.75L6.7-37.75 6.65-37.75Q7.95-38.6 9.35-39.15 10.75-39.7 12.05-39.7L12.05-39.7 22.95-39.7Q24.25-39.7 25.65-39.15 27.05-38.6 28.35-37.75L28.35-37.75 28.3-37.75Q29.6-36.8 30.3-35.27 31-33.75 31-31.75L31-31.75 31-28.8Q31-26.45 28-26.45L28-26.45Q25.05-26.45 25.05-28.8L25.05-28.8 25.05-31.3Q25.05-32.55 24.3-33.6 23.55-34.65 21.7-34.65L21.7-34.65 13.3-34.65Q11.45-34.65 10.7-33.6 9.95-32.55 9.95-31.3L9.95-31.3 9.95-26.2Q9.95-24.9 10.7-23.88 11.45-22.85 13.3-22.85L13.3-22.85ZM54.45 0L48.5 0Q46.7 0 46.6-2.35L46.6-2.35Q46.6-4.7 48.5-4.7L48.5-4.7 53.55-4.7Q55.4-4.7 56.17-5.75 56.95-6.8 56.95-8L56.95-8 56.95-22.1Q56.95-23.35 56.17-24.43 55.4-25.5 53.5-25.4L53.5-25.4 43.9-25.4 43.9 4.65Q43.9 7 41.15 7L41.15 7Q38.4 7 38.4 4.6L38.4 4.6 38.4-27.15Q38.4-28.9 39.3-29.5 40.2-30.1 41.5-30.1L41.5-30.1 54.45-30.1Q55.75-30.1 57.07-29.65 58.4-29.2 59.8-28.4L59.8-28.4Q61-27.55 61.72-26.03 62.45-24.5 62.45-22.45L62.45-22.45 62.45-7.65Q62.45-3.55 59.8-1.8L59.8-1.8Q57 0 54.45 0L54.45 0ZM82.8 0L76.25 0Q74.7 0 73.3-0.43 71.9-0.85 70.6-1.65L70.6-1.65 70.6-1.6Q68.15-3.15 68.15-7.3L68.15-7.3 68.15-9.75Q68.15-11.8 68.87-13.33 69.6-14.85 70.9-15.75L70.9-15.75 70.85-15.75Q72.1-16.6 73.5-17.03 74.9-17.45 76.2-17.45L76.2-17.45 87.25-17.45 87.25-22.1Q87.25-23.35 86.47-24.38 85.7-25.4 83.85-25.4L83.85-25.4 78-25.4Q76.1-25.4 75.37-24.48 74.65-23.55 74.65-22.3L74.65-22.3 74.65-21.9Q74.65-19.3 71.85-19.3L71.85-19.3Q69.05-19.3 69.05-21.9L69.05-21.9 69.05-22.35Q69.05-24.4 69.77-25.8 70.5-27.2 71.75-28.15L71.75-28.15 71.7-28.15Q73-29 74.42-29.55 75.85-30.1 77.15-30.1L77.15-30.1 84.75-30.1Q86-30.1 87.42-29.55 88.85-29 90.1-28.15L90.1-28.15 90.05-28.15Q91.35-27.2 92.05-25.68 92.75-24.15 92.75-22.15L92.75-22.15 92.75-2.1Q92.75 0.3 90 0.3L90 0.3Q89.45 0.3 88.97 0.25 88.5 0.2 88.12-0.03 87.75-0.25 87.52-0.68 87.3-1.1 87.3-1.8L87.3-1.8 87.25-12.75 77.15-12.75Q76.05-12.75 75.45-12.5 74.85-12.25 74.5-11.7L74.5-11.7Q74.1-10.85 73.92-10.38 73.75-9.9 73.75-9.3L73.75-9.3 73.75-7.35Q73.75-6.05 74.52-5.38 75.3-4.7 77.2-4.7L77.2-4.7 82.8-4.7Q84.65-4.7 84.65-2.35L84.65-2.35Q84.65-1.35 84.2-0.68 83.75 0 82.8 0L82.8 0ZM104.59-22.75L104.59-2.1Q104.59 0.3 101.84 0.3L101.84 0.3Q98.99 0.3 98.99-2.1L98.99-2.1 98.99-22.8Q98.99-26.9 101.44-28.5L101.44-28.5Q103.89-30.1 107.09-30.1L107.09-30.1 112.79-30.1Q114.64-30.1 114.64-27.75L114.64-27.75Q114.74-25.4 112.79-25.4L112.79-25.4 107.49-25.4Q105.69-25.4 105.14-24.7 104.59-24 104.59-22.75L104.59-22.75ZM140.34-26.5L124.39-8.35 124.39-2Q124.39 0.35 121.64 0.35L121.64 0.35Q118.89 0.35 118.89-2L118.89-2 118.89-37.6Q118.89-40 121.64-40L121.64-40Q124.39-40 124.39-37.6L124.39-37.6 124.39-16.4Q125.64-17.9 127.17-19.63 128.69-21.35 130.22-23.13 131.74-24.9 133.24-26.63 134.74-28.35 136.04-29.85L136.04-29.85 136.04-29.8Q136.94-30.85 137.84-30.85L137.84-30.85Q138.34-30.85 138.82-30.63 139.29-30.4 139.84-30L139.84-30 139.79-30Q140.99-29 140.99-28L140.99-28Q140.99-27.65 140.84-27.23 140.69-26.8 140.34-26.5L140.34-26.5ZM135.59-13.75L141.09-3.35Q141.44-2.7 141.44-2L141.44-2Q141.44-0.7 139.94-0.05L139.94-0.05Q138.94 0.55 138.14 0.55L138.14 0.55Q137.59 0.55 137.09 0.18 136.59-0.2 136.29-0.75L136.29-0.75 131.29-10.4Q130.84-11.15 130.84-11.9L130.84-11.9Q130.84-13.15 132.14-14L132.14-14Q132.49-14.25 132.87-14.45 133.24-14.65 133.69-14.75L133.69-14.75Q134.24-14.85 134.74-14.55 135.24-14.25 135.59-13.75L135.59-13.75ZM157.74 0.25L157.74 0.25Q156.74 0.25 155.61-0.08 154.49-0.4 153.99-1.3L153.99-1.3Q152.84-5.2 151.59-9.3 150.34-13.4 149.09-17.35L149.09-17.35Q147.69-22 146.09-27.03 144.49-32.05 143.09-36.65L143.09-36.65Q142.79-37.75 143.44-38.58 144.09-39.4 145.29-39.8L145.29-39.8Q146.04-40 146.59-40L146.59-40Q148.29-40 148.79-38.3L148.79-38.3 152.49-26.45Q152.99-24.65 153.66-22.5 154.34-20.35 155.04-18.1 155.74-15.85 156.44-13.63 157.14-11.4 157.74-9.5L157.74-9.5Q158.69-12.65 159.81-16.32 160.94-20 162.11-23.8 163.29-27.6 164.44-31.33 165.59-35.05 166.59-38.3L166.59-38.3Q167.14-40 168.74-40L168.74-40Q169.34-40 170.14-39.8L170.14-39.8Q172.89-39.05 172.29-36.65L172.29-36.65Q169.59-27.9 166.84-19 164.09-10.1 161.39-1.3L161.39-1.3Q160.99-0.3 159.91-0.03 158.84 0.25 157.74 0.25ZM182.24-27.9L182.24-2.1Q182.24 0.3 179.49 0.3L179.49 0.3Q176.69 0.3 176.69-2.1L176.69-2.1 176.69-27.9Q176.69-30.3 179.49-30.3L179.49-30.3Q182.24-30.3 182.24-27.9L182.24-27.9ZM183.29-36.6L183.29-36.6Q183.29-35 182.19-33.9 181.09-32.8 179.49-32.8L179.49-32.8Q177.89-32.8 176.76-33.9 175.64-35 175.64-36.6L175.64-36.6Q175.64-38.25 176.76-39.35 177.89-40.45 179.49-40.45L179.49-40.45Q181.09-40.45 182.19-39.35 183.29-38.25 183.29-36.6ZM194.68-25.4L194.63-2.1Q194.63-0.9 193.78-0.3 192.93 0.3 191.93 0.3L191.93 0.3Q189.18 0.3 189.18-2.1L189.18-2.1 189.18-37.6Q189.18-40 191.93-40L191.93-40Q194.68-40 194.68-37.6L194.68-37.6 194.68-30.1 205.23-30.1Q207.78-30.1 210.53-28.2L210.53-28.2Q213.23-26.3 213.23-22.2L213.23-22.2 213.23-7.3Q213.23-3.15 210.78-1.6L210.78-1.6Q208.33 0 205.18 0L205.18 0 199.28 0Q197.48 0 197.38-2.35L197.38-2.35Q197.38-4.7 199.28-4.7L199.28-4.7 204.28-4.7Q206.13-4.7 206.93-5.38 207.73-6.05 207.73-7.35L207.73-7.35 207.73-21.75Q207.73-23.05 206.93-24.25L206.93-24.25 206.98-24.2Q206.33-25.4 204.33-25.4L204.33-25.4 194.68-25.4ZM224.88-22.15L224.88-8Q224.88-6.8 225.66-5.75 226.43-4.7 228.28-4.7L228.28-4.7 234.53-4.7Q236.38-4.7 237.16-5.63 237.93-6.55 237.93-7.75L237.93-7.75 237.93-8.3Q237.93-10.65 240.68-10.65L240.68-10.65Q243.43-10.65 243.43-8.3L243.43-8.3 243.43-7.7Q243.43-5.6 242.76-4.25 242.08-2.9 240.73-1.9L240.73-1.9Q238.08 0 235.43 0L235.43 0 227.03 0Q224.38 0 221.88-1.9L221.88-1.9Q220.68-2.9 220.03-4.42 219.38-5.95 219.38-7.95L219.38-7.95 219.38-22.2Q219.38-26.25 221.88-28.2L221.88-28.2Q223.13-29.1 224.46-29.63 225.78-30.15 227.03-30.15L227.03-30.15 235.43-30.15Q236.63-30.15 238.08-29.68 239.53-29.2 240.78-28.4L240.78-28.4Q241.98-27.55 242.71-26.05 243.43-24.55 243.43-22.5L243.43-22.5 243.43-15.75Q243.43-14.6 242.76-13.7 242.08-12.8 240.28-12.8L240.28-12.8 229.48-12.8Q227.68-12.8 227.58-15.15L227.58-15.15Q227.58-17.5 229.48-17.5L229.48-17.5 237.98-17.5 237.93-22.15Q237.93-23.4 237.16-24.43 236.38-25.45 234.53-25.45L234.53-25.45 228.28-25.45Q226.43-25.45 225.66-24.43 224.88-23.4 224.88-22.15L224.88-22.15Z" opacity="1" transform="matrix(1,0,0,1,0,0)" fill="#ffffff" class="wordmark-text-0" data-fill-palette-color="primary" id="text-0"></path></svg></g></svg></g></svg></g></svg></g><g><svg viewBox="0 0 108.31731036959701 108.31731036959701" height="108.31731036959701" width="108.31731036959701"><g><svg></svg></g><g id="icon-0"><svg viewBox="0 0 108.31731036959701 108.31731036959701" height="108.31731036959701" width="108.31731036959701"><g><path transform="scale(1.08317,1.08317)" d="M30 100c-16.569 0-30-13.431-30-30v-40c0-16.569 13.431-30 30-30h40c16.569 0 30 13.431 30 30v40c0 16.569-13.431 30-30 30z" fill="#ffffff" fill-rule="nonzero" stroke="none" stroke-width="1" stroke-linecap="butt" stroke-linejoin="miter" stroke-miterlimit="10" stroke-dasharray="" stroke-dashoffset="0" font-family="none" font-weight="none" font-size="none" text-anchor="none" style="mix-blend-mode: normal" data-fill-palette-color="accent"></path></g><g transform="matrix(1,0,0,1,25.832111159446526,21.663462073919405)"><svg viewBox="0 0 56.65308805070396 64.9903862217582" height="64.9903862217582" width="56.65308805070396"><g><svg xmlns="http://www.w3.org/2000/svg" xmlns:xlink="http://www.w3.org/1999/xlink" version="1.0" x="0" y="0" viewBox="11.7923336 5.4039216 77.98476600000001 89.46132039999999" enable-background="new 0 0 100 100" xml:space="preserve" height="64.9903862217582" width="56.65308805070396" class="icon-cg-0" data-fill-palette-color="quaternary" id="cg-0"><polygon points="51.3392067,21.5548553 51.2853622,43.8103523 22.3294468,5.4039216 40.4145317,50.2183838 11.7923336,24.330555   51.2050591,76.9569855 51.2460327,60.0152016 89.7770996,94.865242 " fill="#000000" data-fill-palette-color="quaternary"></polygon></svg></g></svg></g></svg></g></svg></g></svg></g><defs></defs></svg><rect width="395.52" height="82.01868292842205" fill="none" stroke="none" visibility="hidden"></rect></g></svg></g></svg>