<svg version="1.2" xmlns="http://www.w3.org/2000/svg" viewBox="0 0 720 1024" width="720" height="1024"><defs><clipPath clipPathUnits="userSpaceOnUse" id="cp1"><path d="m0 0h720v1024h-720z"/></clipPath><clipPath clipPathUnits="userSpaceOnUse" id="cp2"><path d="m90.65-208.34l825.3 163.81-286.6 1443.91-825.29-163.81z"/></clipPath><clipPath clipPathUnits="userSpaceOnUse" id="cp3"><path d="m210.04 712.02c2.32-11.68 13.68-19.28 25.36-16.96l456.38 90.59c11.69 2.32 19.28 13.67 16.97 25.36l-41.59 209.5c-2.32 11.69-13.67 19.28-25.36 16.96l-456.38-90.59c-11.69-2.32-19.28-13.67-16.96-25.36z"/></clipPath><linearGradient id="P" gradientUnits="userSpaceOnUse"/><linearGradient id="g1" x2="1" href="#P" gradientTransform="matrix(-57.543,289.911,-498.704,-98.986,463.594,740.356)"><stop stop-opacity="0"/><stop offset="1" stop-opacity="1"/></linearGradient><clipPath clipPathUnits="userSpaceOnUse" id="cp4"><path d="m262.82 446.1c2.32-11.69 13.68-19.28 25.37-16.96l197.5 39.2c11.69 2.32 19.28 13.67 16.96 25.36l-41.58 209.5c-2.32 11.68-13.67 19.28-25.36 16.96l-197.51-39.2c-11.68-2.32-19.28-13.68-16.96-25.37z"/></clipPath><clipPath clipPathUnits="userSpaceOnUse" id="cp5"><path d="m-97.94 930.23c2.32-11.69 13.67-19.28 25.36-16.96l197.5 39.2c11.69 2.32 19.28 13.68 16.97 25.36l-41.59 209.5c-2.32 11.69-13.67 19.28-25.36 16.96l-197.51-39.2c-11.68-2.32-19.28-13.67-16.96-25.36z"/></clipPath><clipPath clipPathUnits="userSpaceOnUse" id="cp6"><path d="m108.87 966.88l16.93 3.36-3.36 16.93-16.93-3.36z"/></clipPath><clipPath clipPathUnits="userSpaceOnUse" id="cp7"><path d="m371.07-88.16c2.32-11.69 13.67-19.28 25.36-16.96l197.51 39.2c11.68 2.32 19.28 13.67 16.96 25.36l-41.59 209.5c-2.32 11.68-13.67 19.28-25.36 16.96l-197.5-39.2c-11.69-2.32-19.29-13.68-16.97-25.36z"/></clipPath><clipPath clipPathUnits="userSpaceOnUse" id="cp8"><path d="m318.28 177.77c2.32-11.69 13.68-19.28 25.37-16.96l197.5 39.2c11.69 2.32 19.28 13.67 16.96 25.36l-41.58 209.5c-2.32 11.68-13.67 19.28-25.36 16.96l-197.51-39.2c-11.68-2.32-19.28-13.68-16.96-25.37z"/></clipPath><linearGradient id="g2" x2="1" href="#P" gradientTransform="matrix(-49.983,251.82,-239.829,-47.603,442.399,180.406)"><stop stop-opacity="0"/><stop offset="1" stop-opacity="1"/></linearGradient><clipPath clipPathUnits="userSpaceOnUse" id="cp9"><path d="m464.21 340.17l16.93 3.36-3.36 16.93-16.93-3.36z"/></clipPath><clipPath clipPathUnits="userSpaceOnUse" id="cp10"><path d="m295.74 383.71c1.16-5.84 6.83-9.64 12.68-8.48 5.84 1.16 9.64 6.84 8.48 12.68-1.16 5.84-6.84 9.64-12.68 8.48-5.85-1.16-9.64-6.84-8.48-12.68z"/></clipPath><clipPath clipPathUnits="userSpaceOnUse" id="cp11"><path d="m433.74 408.17c0.38-1.95 2.28-3.21 4.22-2.83l5.65 1.12c1.94 0.39 3.21 2.28 2.82 4.23l-1.12 5.64c-0.38 1.95-2.28 3.22-4.22 2.83l-5.65-1.12c-1.95-0.39-3.21-2.28-2.82-4.23z"/></clipPath><clipPath clipPathUnits="userSpaceOnUse" id="cp12"><path d="m475.25 412.74l12.69 2.52-2.52 12.7-12.69-2.52z"/></clipPath><clipPath clipPathUnits="userSpaceOnUse" id="cp13"><path d="m212.88 431.78l16.93 3.36-3.36 16.93-16.93-3.36z"/></clipPath></defs><style>.a{fill:#09090a}.b{fill:#1b1b1f}.c{fill:none}.d{opacity:.7;fill:url(#g1)}.e{fill:#fff}.f{opacity:.1;fill:#fff}.g{opacity:.7;fill:url(#g2)}.h{fill:none;stroke:#fff;stroke-linecap:round;stroke-linejoin:round;stroke-width:1.4}.i{fill:#fafafa}.j{fill:none;stroke:#000;stroke-width:.7}.k{fill:#877eff}.l{fill:#efefef}</style><g clip-path="url(#cp1)"><path class="a" d="m0 0h720v1024h-720z"/><g clip-path="url(#cp2)"><path  d="m90.7-208.3l825.2 163.8-286.5 1443.9-825.3-163.8z"/><g clip-path="url(#cp3)"><path class="b" d="m210 712c2.4-11.7 13.7-19.3 25.4-16.9l456.4 90.5c11.7 2.4 19.3 13.7 16.9 25.4l-41.5 209.5c-2.4 11.7-13.7 19.3-25.4 17l-456.4-90.6c-11.7-2.3-19.3-13.7-16.9-25.4z"/><path class="c" d="m210 712c2.4-11.7 13.7-19.3 25.4-16.9l456.4 90.5c11.7 2.4 19.3 13.7 16.9 25.4l-41.5 209.5c-2.4 11.7-13.7 19.3-25.4 17l-456.4-90.6c-11.7-2.3-19.3-13.7-16.9-25.4z"/><path class="d" d="m214.2 690.9l498.7 98.9-57.5 290-498.7-99z"/><path fill-rule="evenodd" class="e" d="m200.6 914.6q0-0.5-0.2-0.8-0.1-0.4-0.4-0.6-0.2-0.3-0.6-0.5-0.3-0.2-0.8-0.3-0.9-0.2-1.6 0.1-0.7 0.3-1.3 1.1-0.5 0.7-0.7 1.9-0.3 1.2-0.1 2.1 0.2 0.9 0.8 1.5 0.6 0.5 1.5 0.7 0.8 0.2 1.4 0 0.6-0.2 1-0.7 0.4-0.4 0.6-1.1l-2.4-0.5 0.3-1.8 4.7 1-0.2 1.4q-0.3 1.5-1.2 2.4-0.8 1-2 1.3-1.2 0.4-2.7 0.1-1.6-0.3-2.6-1.3-1.1-0.9-1.5-2.3-0.4-1.5 0-3.2 0.2-1.4 0.8-2.4 0.7-1 1.5-1.6 0.9-0.6 1.9-0.8 1.1-0.2 2.2 0 0.9 0.2 1.7 0.6 0.8 0.5 1.3 1.1 0.6 0.6 0.8 1.4 0.3 0.8 0.3 1.7zm-0.5 3.4l0.5 0.1-0.5-0.2q0 0.1 0 0.1zm6.3 5.8q-1.3-0.2-2.1-1-0.8-0.7-1.1-1.8-0.4-1.1-0.1-2.4 0.3-1.3 1-2.2 0.7-0.8 1.7-1.2 1.1-0.4 2.3-0.1 1.3 0.2 2.1 1 0.9 0.7 1.2 1.8 0.3 1.1 0 2.4-0.2 1.3-0.9 2.2-0.7 0.9-1.8 1.2-1 0.4-2.3 0.1zm0.4-1.8q0.6 0.1 1-0.1 0.5-0.3 0.8-0.8 0.3-0.6 0.5-1.3 0.1-0.7 0-1.4-0.1-0.6-0.4-1-0.3-0.4-0.9-0.5-0.6-0.1-1.1 0.1-0.4 0.3-0.7 0.8-0.4 0.6-0.5 1.3-0.2 0.7-0.1 1.3 0.1 0.7 0.5 1.1 0.3 0.4 0.9 0.5zm11.3 4.1q-1.3-0.2-2.1-0.9-0.8-0.8-1.1-1.9-0.4-1-0.1-2.3 0.3-1.4 1-2.2 0.7-0.9 1.7-1.3 1.1-0.3 2.3-0.1 1.3 0.3 2.1 1 0.9 0.7 1.2 1.8 0.3 1.1 0 2.4-0.2 1.3-0.9 2.2-0.7 0.9-1.8 1.2-1 0.4-2.3 0.1zm0.4-1.8q0.6 0.1 1-0.1 0.5-0.3 0.8-0.8 0.3-0.5 0.5-1.3 0.1-0.7 0-1.3-0.1-0.7-0.4-1.1-0.3-0.4-0.9-0.5-0.6-0.1-1.1 0.1-0.4 0.3-0.7 0.8-0.4 0.6-0.5 1.3-0.2 0.8-0.1 1.4 0.1 0.6 0.4 1 0.4 0.4 1 0.5zm7.9-1.8l-0.9 4.9-2.4-0.4 1.7-8.5 2.2 0.5-0.3 1.4 0.1 0.1q0.5-0.7 1.2-1 0.8-0.3 1.7-0.1 0.9 0.1 1.5 0.7 0.5 0.5 0.8 1.3 0.2 0.7 0 1.7l-1.1 5.4-2.3-0.4 1-5q0.1-0.8-0.2-1.3-0.3-0.5-1-0.7-0.5-0.1-0.9 0.1-0.4 0.1-0.7 0.5-0.2 0.3-0.4 0.8zm10.9 7.5q-0.8-0.2-1.3-0.6-0.6-0.4-0.9-1-0.2-0.7-0.1-1.5 0.2-0.7 0.5-1.2 0.4-0.4 0.9-0.6 0.5-0.2 1.1-0.2 0.6-0.1 1.2 0 0.8 0.1 1.2 0.1 0.5 0 0.7-0.1 0.3-0.1 0.3-0.4 0.1-0.5-0.1-0.9-0.3-0.3-0.9-0.4-0.6-0.2-1.1 0.1-0.4 0.2-0.6 0.5l-2.1-0.6q0.3-0.7 0.9-1.2 0.6-0.4 1.4-0.6 0.8-0.1 1.8 0.1 0.8 0.1 1.4 0.4 0.6 0.3 1 0.7 0.5 0.5 0.6 1.1 0.2 0.6 0.1 1.3l-1.2 5.7-2.2-0.4 0.2-1.2q-0.3 0.4-0.7 0.6-0.4 0.2-0.9 0.3-0.5 0.1-1.2 0zm1-1.5q0.6 0.1 1 0 0.4-0.2 0.7-0.5 0.3-0.3 0.4-0.7l0.2-0.9q-0.1 0-0.3 0-0.2 0.1-0.5 0.1-0.2 0-0.5-0.1-0.2 0-0.4 0-0.4 0-0.8 0.1-0.3 0-0.5 0.2-0.2 0.2-0.3 0.5-0.1 0.5 0.2 0.8 0.3 0.4 0.8 0.5zm14-4.5l-0.3 1.7-1.6-0.3-0.8 4.1q-0.1 0.3 0 0.5 0 0.2 0.2 0.3 0.2 0.2 0.4 0.2 0.2 0 0.3 0 0.2 0 0.3 0v1.9q-0.2 0-0.5 0-0.3 0-0.8-0.1-0.9-0.1-1.4-0.5-0.6-0.4-0.9-1-0.2-0.6 0-1.4l0.8-4.4-1.1-0.3 0.3-1.7 1.2 0.2 0.4-2 2.3 0.4-0.4 2.1zm-0.8 8.6l1.7-8.5 2.2 0.5-0.3 1.4 0.1 0.1q0.4-0.8 1-1.1 0.7-0.3 1.4-0.1 0.2 0 0.4 0.1 0.2 0 0.3 0.1l-0.4 2.1q-0.2-0.1-0.5-0.2-0.2-0.1-0.5-0.1-0.5-0.1-1 0-0.4 0.1-0.7 0.5-0.3 0.3-0.4 0.9l-1 4.7zm5.7 1.2l1.6-8.5 2.4 0.5-1.7 8.4zm3.1-9.3q-0.5-0.1-0.8-0.5-0.3-0.4-0.2-0.9 0.1-0.5 0.5-0.8 0.4-0.3 1-0.2 0.5 0.1 0.8 0.6 0.3 0.4 0.2 0.9-0.1 0.5-0.5 0.7-0.5 0.3-1 0.2zm-0.2 13.2l2.3-11.6 2.3 0.4-0.3 1.5h0.2q0.2-0.3 0.5-0.6 0.4-0.3 0.9-0.5 0.6-0.1 1.3 0 0.9 0.2 1.6 0.8 0.7 0.7 0.9 1.7 0.3 1.1 0 2.6-0.3 1.4-0.9 2.3-0.6 0.8-1.5 1.2-0.9 0.3-1.9 0.1-0.7-0.1-1.1-0.4-0.4-0.3-0.7-0.7-0.2-0.5-0.3-0.8v-0.1l-0.9 4.6zm3.7-7q-0.1 0.8 0 1.4 0.1 0.6 0.4 1 0.3 0.4 0.9 0.5 0.6 0.1 1-0.1 0.5-0.3 0.8-0.8 0.3-0.5 0.5-1.3 0.1-0.7 0-1.3-0.1-0.6-0.4-1-0.3-0.4-0.9-0.5-0.6-0.1-1 0.1-0.5 0.2-0.8 0.8-0.3 0.5-0.5 1.2zm10.6 6.5l-0.7-8.9 2.4 0.5 0.2 5.9h0.1l2.5-5.4 2.3 0.5 0.3 5.9 2.4-5.4 2.4 0.5-4 8-2.5-0.5-0.3-5.6h-0.2l-2.5 5zm10.9 2.2l1.6-8.5 2.4 0.5-1.7 8.4zm3.1-9.3q-0.5-0.1-0.8-0.5-0.3-0.5-0.2-0.9 0-0.5 0.5-0.8 0.4-0.3 1-0.2 0.5 0.1 0.8 0.6 0.3 0.4 0.2 0.9-0.1 0.4-0.6 0.7-0.4 0.3-0.9 0.2zm6.6 2.4l-0.3 1.8-1.6-0.3-0.8 4.1q-0.1 0.3 0 0.5 0 0.2 0.2 0.3 0.1 0.1 0.4 0.2 0.1 0 0.3 0 0.2 0 0.3 0v1.8q-0.2 0.1-0.5 0.1-0.4 0-0.8-0.1-0.9-0.1-1.5-0.5-0.5-0.4-0.8-1-0.2-0.6-0.1-1.5l0.9-4.4-1.1-0.2 0.3-1.8 1.2 0.3 0.4-2.1 2.3 0.5-0.4 2zm2.7 4.3l-1 4.9-2.4-0.5 2.3-11.3 2.3 0.5-0.9 4.3h0.1q0.4-0.7 1.2-1 0.7-0.3 1.7-0.1 0.8 0.2 1.4 0.7 0.6 0.5 0.8 1.3 0.3 0.8 0 1.8l-1 5.4-2.4-0.5 1-5q0.2-0.8-0.1-1.3-0.3-0.5-1.1-0.6-0.4-0.1-0.9 0-0.4 0.1-0.6 0.5-0.3 0.3-0.4 0.9zm9 6.9l1.4-6.7 2.3 0.4-1.3 6.7zm1.8-9.1q0.2-0.9 0.6-1.4 0.5-0.5 1.2-0.7 0.7-0.2 1.5 0 0.5 0.1 1 0.2 0.4 0.2 0.6 0.3l-0.8 1.7q-0.1-0.1-0.3-0.2-0.2 0-0.4-0.1-0.5-0.1-0.8 0.1-0.2 0.2-0.3 0.7l-0.1 0.5-2.3-0.4zm-0.2 0.6l-0.3 1.7-1.2-0.2 0.3-1.8zm2 2.3l0.4-1.8 1.7 0.3-0.4 1.8zm1.1 7.2l1.7-8.5 2.3 0.5-0.3 1.4 0.1 0.1q0.3-0.8 1-1.1 0.6-0.3 1.3-0.1 0.2 0 0.4 0.1 0.2 0 0.3 0.1l-0.4 2.1q-0.1-0.1-0.4-0.2-0.3-0.1-0.6-0.2-0.5-0.1-0.9 0.1-0.5 0.1-0.8 0.5-0.3 0.3-0.4 0.8l-1 4.8zm5.7 1.2l1.7-8.5 2.3 0.5-1.7 8.4zm3.1-9.3q-0.5-0.1-0.8-0.5-0.3-0.4-0.2-0.9 0.1-0.5 0.5-0.8 0.5-0.3 1-0.2 0.5 0.1 0.8 0.6 0.3 0.4 0.2 0.9-0.1 0.5-0.5 0.7-0.5 0.3-1 0.2zm4.3 11q-1.3-0.3-2.2-1-0.8-0.7-1.1-1.8-0.3-1.1 0-2.4 0.2-1.3 0.9-2.2 0.7-0.9 1.7-1.3 1.1-0.4 2.3-0.1 0.9 0.2 1.5 0.6 0.7 0.4 1.1 1 0.5 0.7 0.6 1.5 0.2 0.9 0 2l-0.2 0.6-5.7-1.1q-0.2 0.6 0 1.1 0.1 0.5 0.5 0.9 0.4 0.3 1 0.4 0.4 0.1 0.7 0 0.4 0 0.6-0.2 0.3-0.2 0.5-0.4l2.1 0.5q-0.3 0.8-0.9 1.3-0.6 0.4-1.5 0.6-0.9 0.2-1.9 0zm-1.1-4.2l0.2-1.4q0 0 0.1-0.1l-1.4-0.2-0.3 1.4zm3.8-0.7q0.1-0.5 0-1-0.2-0.4-0.5-0.7-0.4-0.3-0.9-0.4-0.5-0.1-1 0-0.4 0.2-0.7 0.6-0.3 0.3-0.4 0.8zm5.3 1.2l-1 4.9-2.3-0.5 1.7-8.4 2.2 0.4-0.3 1.5h0.1q0.4-0.6 1.2-0.9 0.7-0.3 1.7-0.2 0.9 0.2 1.4 0.7 0.6 0.5 0.8 1.3 0.3 0.8 0.1 1.8l-1.1 5.4-2.3-0.5 0.9-4.9q0.2-0.8-0.1-1.3-0.3-0.6-1-0.7-0.5-0.1-0.9 0-0.4 0.2-0.7 0.5-0.3 0.4-0.4 0.9zm8.7 7q-0.9-0.2-1.6-0.9-0.7-0.6-1-1.7-0.2-1 0.1-2.5 0.3-1.4 0.9-2.3 0.7-0.9 1.6-1.2 0.8-0.3 1.8-0.1 0.7 0.1 1.1 0.4 0.4 0.4 0.7 0.8 0.2 0.4 0.3 0.8l0.9-4.3 2.3 0.5-2.2 11.3-2.3-0.5 0.2-1.3h-0.1q-0.2 0.3-0.6 0.6-0.3 0.3-0.9 0.4-0.5 0.1-1.2 0zm1.2-1.7q0.5 0.1 1-0.2 0.4-0.2 0.8-0.7 0.3-0.5 0.4-1.3 0.2-0.7 0.1-1.3-0.1-0.6-0.5-1-0.3-0.4-0.9-0.5-0.5-0.1-1 0.1-0.5 0.2-0.8 0.8-0.3 0.5-0.4 1.2-0.2 0.7-0.1 1.3 0.1 0.7 0.4 1 0.4 0.4 1 0.6zm13.1-1.9l-2.1-0.3q0-0.3-0.2-0.6-0.1-0.2-0.4-0.4-0.2-0.2-0.6-0.3-0.6-0.1-1 0.1-0.4 0.1-0.5 0.5-0.1 0.3 0.1 0.6 0.2 0.2 0.8 0.5l1.5 0.6q1.2 0.5 1.6 1.2 0.5 0.6 0.4 1.6-0.2 0.8-0.8 1.3-0.6 0.5-1.5 0.7-1 0.2-2.1 0-1.6-0.3-2.5-1.2-0.9-0.9-0.8-2.2l2.4 0.3q0 0.6 0.3 0.9 0.4 0.4 1 0.5 0.6 0.1 1 0 0.4-0.2 0.5-0.6 0.1-0.3-0.1-0.6-0.3-0.2-0.8-0.4l-1.4-0.6q-1.2-0.5-1.7-1.3-0.5-0.7-0.3-1.6 0.2-0.8 0.8-1.3 0.5-0.5 1.4-0.7 0.9-0.2 1.9 0 1.7 0.4 2.4 1.2 0.8 0.9 0.7 2.1z"/><path class="f" d="m592.2 988.9c0.6-3.1 3.6-5.1 6.7-4.5l45.8 9.1c3.1 0.6 5.1 3.6 4.5 6.8l-2 9.9c-0.6 3.1-3.6 5.1-6.7 4.5l-45.8-9.1c-3.1-0.6-5.1-3.6-4.5-6.7z"/><path class="e" d="m603.5 993.5l0.6 5.2h0.1l2.5-4.5 1.3 0.2-3.4 5.7-1.4-0.2-1-6.6zm4.1 7.2l0.9-4.6 1.1 0.2-0.9 4.6zm1.6-5.2q-0.3 0-0.5-0.2-0.1-0.2-0.1-0.5 0.1-0.2 0.3-0.4 0.2-0.1 0.5 0 0.3 0 0.4 0.2 0.2 0.2 0.1 0.5 0 0.2-0.3 0.4-0.2 0.1-0.4 0zm4.9 3l-1-0.1q0-0.2-0.1-0.3-0.1-0.2-0.2-0.3-0.2-0.1-0.5-0.2-0.3 0-0.6 0.1-0.2 0.1-0.3 0.3 0 0.2 0.1 0.4 0.2 0.1 0.5 0.3l0.7 0.3q0.7 0.3 0.9 0.6 0.3 0.4 0.2 0.9-0.1 0.4-0.4 0.7-0.3 0.3-0.8 0.4-0.5 0.1-1.1 0-0.8-0.2-1.3-0.6-0.4-0.5-0.4-1.2l1.1 0.1q0 0.4 0.2 0.6 0.2 0.2 0.6 0.3 0.4 0 0.6-0.1 0.3-0.1 0.4-0.3 0-0.2-0.1-0.4-0.2-0.1-0.5-0.3l-0.7-0.3q-0.7-0.3-0.9-0.7-0.3-0.4-0.2-0.9 0.1-0.4 0.4-0.6 0.3-0.3 0.8-0.4 0.4-0.1 1 0 0.8 0.2 1.2 0.6 0.4 0.5 0.4 1.1zm0.3 3.6l0.9-4.7 1.1 0.3-0.9 4.6zm1.6-5.2q-0.3 0-0.4-0.2-0.2-0.3-0.1-0.5 0-0.2 0.3-0.4 0.2-0.1 0.4-0.1 0.3 0.1 0.4 0.3 0.2 0.2 0.1 0.4 0 0.3-0.2 0.4-0.2 0.2-0.5 0.1zm3.8 1.5l-0.1 0.8-2.7-0.5 0.2-0.9zm-1.8-1.5l1.1 0.2-0.9 4.4q0 0.2 0 0.3 0.1 0.2 0.2 0.2 0.1 0.1 0.2 0.1 0.1 0 0.2 0 0.1 0 0.1 0l0.1 0.9q-0.1 0-0.3 0-0.2 0-0.4 0-0.4-0.1-0.7-0.3-0.3-0.2-0.5-0.5-0.1-0.3 0-0.8zm8.2 3q0-0.4-0.3-0.7-0.2-0.3-0.7-0.4-0.4-0.1-0.7 0-0.2 0-0.4 0.2-0.2 0.2-0.2 0.4-0.1 0.2 0 0.3 0.1 0.2 0.2 0.3 0.1 0.2 0.3 0.3 0.2 0.1 0.4 0.1l0.5 0.3q0.3 0.1 0.6 0.4 0.3 0.2 0.5 0.4 0.3 0.3 0.4 0.6 0 0.3 0 0.7-0.1 0.6-0.5 0.9-0.4 0.4-0.9 0.5-0.6 0.1-1.3 0-0.7-0.2-1.2-0.5-0.5-0.3-0.7-0.8-0.2-0.5-0.1-1.1l1.1 0.2q-0.1 0.4 0.1 0.6 0.1 0.2 0.3 0.4 0.3 0.2 0.7 0.2 0.3 0.1 0.6 0.1 0.3-0.1 0.5-0.3 0.2-0.1 0.3-0.4 0-0.2-0.1-0.4-0.1-0.2-0.3-0.4-0.3-0.1-0.6-0.3l-0.6-0.3q-0.8-0.3-1.1-0.8-0.4-0.5-0.3-1.2 0.2-0.5 0.5-0.9 0.4-0.3 1-0.4 0.5-0.2 1.2 0 0.6 0.1 1.1 0.4 0.4 0.3 0.6 0.8 0.2 0.5 0.1 1zm1.2 4.9l1-4.7 1.1 0.3-1 4.6zm1.6-5.2q-0.2 0-0.4-0.2-0.1-0.3-0.1-0.5 0.1-0.2 0.3-0.4 0.2-0.1 0.5-0.1 0.2 0.1 0.4 0.3 0.1 0.2 0.1 0.5-0.1 0.2-0.3 0.3-0.2 0.2-0.5 0.1zm3.9 1.5l-0.2 0.8-2.7-0.5 0.2-0.9zm-1.8-1.5l1.1 0.3-0.8 4.3q-0.1 0.2 0 0.3 0 0.2 0.1 0.2 0.1 0.1 0.2 0.1 0.1 0 0.2 0 0.1 0 0.2 0v0.9q-0.1 0-0.3 0-0.1 0.1-0.4 0-0.4-0.1-0.7-0.3-0.3-0.2-0.4-0.5-0.2-0.3-0.1-0.7zm3.8 6.7q-0.7-0.1-1.2-0.5-0.4-0.4-0.6-1-0.1-0.6 0-1.3 0.2-0.7 0.5-1.2 0.4-0.5 1-0.7 0.5-0.2 1.2 0 0.4 0 0.8 0.3 0.3 0.2 0.5 0.5 0.3 0.4 0.4 0.8 0 0.5-0.1 1.1v0.3l-3.8-0.7 0.1-0.7 2.8 0.5q0-0.3-0.1-0.6-0.1-0.2-0.3-0.4-0.2-0.2-0.5-0.3-0.3 0-0.6 0.1-0.3 0.1-0.5 0.3-0.2 0.2-0.2 0.5l-0.2 0.7q0 0.4 0.1 0.7 0 0.3 0.3 0.5 0.2 0.2 0.6 0.3 0.2 0 0.4 0 0.2 0 0.4-0.1 0.2-0.1 0.3-0.3l1 0.3q-0.2 0.4-0.6 0.6-0.3 0.3-0.7 0.4-0.5 0.1-1-0.1z"/><path class="f" d="m230.1 721.9c0.6-3.1 3.6-5.2 6.7-4.6l55.3 11c3.1 0.6 5.1 3.7 4.5 6.8l-1.7 8.5c-0.6 3.1-3.6 5.1-6.7 4.5l-55.3-10.9c-3.1-0.7-5.1-3.7-4.5-6.8z"/><path fill-rule="evenodd" class="e" d="m237.9 730.4l-1-0.2 2.8-4.8 1.2 0.2 0.7 5.5-0.9-0.2-0.2-1.3 0.4 0.1 0.1-0.8-0.6-0.1-0.3-2.2h-0.1l-1.1 1.9-0.6-0.1-0.1 0.7 0.3 0.1zm0.7-1.2l0.4-0.7 1.4 0.3 0.2 0.8zm5 2.4q-0.5-0.1-0.8-0.4-0.3-0.3-0.4-0.8-0.1-0.5 0-1.1 0.1-0.6 0.4-1 0.3-0.4 0.7-0.6 0.4-0.2 0.9-0.1 0.3 0.1 0.5 0.3 0.2 0.1 0.3 0.3 0.1 0.2 0.1 0.3h0.1l0.3-1.9 1 0.2-1.1 5.1-0.9-0.1 0.2-0.6-0.1-0.1q-0.1 0.2-0.2 0.3-0.2 0.1-0.5 0.2-0.2 0.1-0.5 0zm0.4-0.7q0.3 0.1 0.5-0.1 0.2-0.1 0.4-0.3 0.2-0.3 0.2-0.7 0.1-0.3 0.1-0.6-0.1-0.3-0.3-0.5-0.1-0.2-0.4-0.3-0.3 0-0.6 0.1-0.2 0.1-0.4 0.4-0.1 0.2-0.2 0.6-0.1 0.3 0 0.6 0 0.3 0.2 0.5 0.2 0.2 0.5 0.3zm6.8-1.9l-2.1 3.5-1-0.2-0.6-4.1 0.9 0.2 0.3 3 0.1 0.1 1.4-2.7zm1.5 4.3q-0.6-0.1-1-0.4-0.4-0.3-0.5-0.8-0.1-0.5 0-1.1 0.1-0.6 0.4-1 0.3-0.4 0.8-0.6 0.5-0.2 1-0.1 0.4 0.1 0.7 0.3 0.3 0.2 0.4 0.5 0.2 0.2 0.3 0.6 0.1 0.4 0 0.9l-0.1 0.3-2.7-0.5q0 0.3 0.1 0.6 0 0.2 0.2 0.4 0.2 0.2 0.5 0.2 0.2 0.1 0.4 0 0.2 0 0.3-0.1 0.1-0.1 0.2-0.2l0.9 0.3q-0.2 0.3-0.5 0.5-0.2 0.2-0.6 0.3-0.4 0-0.8-0.1zm-0.7-1.9q0 0 0 0l0.2-0.6q0 0 0 0l-0.5-0.1-0.1 0.6zm1.9-0.3q0.1-0.2 0-0.4-0.1-0.3-0.3-0.4-0.1-0.2-0.4-0.2-0.3-0.1-0.5 0-0.2 0.1-0.4 0.3-0.1 0.2-0.2 0.4zm1.2 2.6l0.7-3.9 0.9 0.2-0.1 0.7q0.2-0.3 0.5-0.5 0.3-0.1 0.6 0 0.1 0 0.2 0 0.1 0 0.1 0.1l-0.1 0.8q-0.1 0-0.2-0.1-0.1 0-0.2-0.1-0.3 0-0.5 0.1-0.2 0-0.4 0.2-0.1 0.2-0.2 0.4l-0.4 2.3zm5.7-2.9l-0.2 0.7-0.7-0.1-0.4 1.9q-0.1 0.2 0 0.3 0 0.1 0.1 0.2 0.1 0 0.2 0.1 0.1 0 0.2 0 0 0 0.1 0v0.7q-0.1 0-0.2 0-0.2 0-0.4 0-0.3 0-0.6-0.2-0.2-0.2-0.3-0.5-0.1-0.2-0.1-0.6l0.5-2.1-0.6-0.1 0.2-0.7 0.5 0.1 0.2-0.9 0.9 0.1-0.2 1zm0 4l0.8-3.9 0.9 0.2-0.8 3.8zm1.3-4.3q-0.2 0-0.3-0.2-0.1-0.2-0.1-0.4 0.1-0.2 0.2-0.3 0.2-0.1 0.4-0.1 0.3 0.1 0.4 0.3 0.1 0.1 0.1 0.3-0.1 0.2-0.3 0.4-0.1 0.1-0.4 0zm4.2 2.5l-0.9-0.1q0-0.1-0.1-0.3 0-0.1-0.2-0.2-0.1-0.1-0.3-0.1-0.3-0.1-0.5 0-0.2 0.1-0.3 0.3 0 0.1 0.1 0.3 0.1 0.1 0.4 0.2l0.6 0.3q0.6 0.2 0.8 0.5 0.2 0.3 0.1 0.8-0.1 0.3-0.3 0.6-0.3 0.2-0.7 0.3-0.4 0.1-0.9 0-0.7-0.2-1.1-0.6-0.3-0.3-0.3-0.9l0.9 0.1q0 0.3 0.2 0.4 0.1 0.2 0.5 0.3 0.3 0 0.5 0 0.2-0.1 0.3-0.3 0-0.2-0.1-0.3-0.1-0.2-0.4-0.3l-0.6-0.2q-0.5-0.3-0.7-0.6-0.3-0.3-0.2-0.7 0.1-0.4 0.3-0.6 0.3-0.2 0.7-0.3 0.4-0.1 0.8 0 0.7 0.1 1 0.5 0.4 0.4 0.4 0.9zm1.9 3.4q-0.6-0.1-0.9-0.5-0.4-0.3-0.5-0.8-0.2-0.5-0.1-1.1 0.2-0.6 0.5-1 0.3-0.4 0.7-0.5 0.5-0.2 1.1-0.1 0.3 0.1 0.6 0.2 0.3 0.2 0.5 0.5 0.2 0.3 0.3 0.7 0 0.4-0.1 0.9v0.3l-2.7-0.6q-0.1 0.4 0 0.6 0.1 0.3 0.3 0.4 0.2 0.2 0.5 0.3 0.2 0 0.3 0 0.2 0 0.3-0.1 0.2-0.1 0.3-0.3l0.8 0.3q-0.1 0.3-0.4 0.5-0.3 0.2-0.7 0.3-0.3 0.1-0.8 0zm-0.6-2q0 0 0 0l0.1-0.5q0-0.1 0-0.1l-0.5-0.1-0.1 0.6zm1.9-0.2q0.1-0.3 0-0.5 0-0.2-0.2-0.4-0.2-0.1-0.4-0.2-0.3 0-0.6 0-0.2 0.1-0.4 0.3-0.1 0.2-0.2 0.4zm1.2 2.6l0.8-3.8 0.9 0.2-0.2 0.6h0.1q0.2-0.3 0.5-0.4 0.3-0.1 0.7-0.1 0.4 0.1 0.6 0.4 0.2 0.2 0.3 0.5v0.1q0.2-0.3 0.5-0.5 0.4-0.1 0.8 0 0.5 0.1 0.8 0.5 0.3 0.4 0.1 1l-0.5 2.6-0.9-0.2 0.5-2.4q0.1-0.4-0.1-0.6-0.1-0.2-0.4-0.2-0.3-0.1-0.6 0.1-0.2 0.1-0.3 0.5l-0.4 2.4-0.9-0.2 0.5-2.5q0-0.3-0.1-0.5-0.2-0.2-0.4-0.3-0.2 0-0.4 0.1-0.2 0-0.3 0.2-0.2 0.1-0.2 0.4l-0.5 2.3zm8 1.7q-0.5-0.1-0.9-0.4-0.4-0.4-0.5-0.9-0.1-0.5 0-1.1 0.1-0.6 0.4-1 0.3-0.4 0.8-0.5 0.4-0.2 1-0.1 0.3 0.1 0.6 0.3 0.3 0.1 0.5 0.4 0.2 0.3 0.3 0.7 0.1 0.4 0 0.9l-0.1 0.3-2.7-0.6q0 0.4 0 0.6 0.1 0.3 0.3 0.5 0.2 0.1 0.5 0.2 0.2 0 0.4 0 0.1 0 0.3-0.1 0.1-0.1 0.2-0.2l0.8 0.2q-0.1 0.3-0.4 0.5-0.3 0.2-0.6 0.3-0.4 0.1-0.9 0zm-0.6-2q0 0 0 0l0.1-0.5q0 0 0-0.1l-0.4-0.1-0.1 0.7zm1.9-0.3q0-0.3 0-0.5-0.1-0.2-0.3-0.4-0.2-0.1-0.4-0.2-0.3 0-0.5 0.1-0.3 0.1-0.4 0.2-0.2 0.2-0.2 0.4zm2.5 0.6l-0.4 2.2-0.9-0.1 0.7-3.9 0.9 0.2-0.1 0.6q0.2-0.3 0.5-0.4 0.4-0.1 0.8 0 0.4 0 0.7 0.3 0.2 0.2 0.3 0.6 0.1 0.3 0 0.8l-0.5 2.4-0.9-0.2 0.5-2.3q0.1-0.4-0.1-0.6-0.1-0.3-0.5-0.3-0.2-0.1-0.4 0-0.2 0.1-0.4 0.2-0.1 0.2-0.2 0.5zm5.6-0.6l-0.1 0.7-0.8-0.1-0.4 2q0 0.2 0 0.3 0.1 0.1 0.2 0.1 0.1 0.1 0.2 0.1 0.1 0 0.1 0 0.1 0 0.1 0l0.1 0.8q-0.1 0-0.3 0-0.1 0-0.3-0.1-0.3 0-0.6-0.2-0.2-0.1-0.4-0.4-0.1-0.3 0-0.6l0.4-2.2-0.5-0.1 0.1-0.7 0.6 0.1 0.2-0.9 0.9 0.2-0.2 0.9z"/></g><g clip-path="url(#cp4)"><path class="b" d="m262.8 446.1c2.3-11.7 13.7-19.3 25.4-17l197.5 39.2c11.7 2.4 19.3 13.7 17 25.4l-41.6 209.5c-2.3 11.7-13.7 19.3-25.4 17l-197.5-39.2c-11.7-2.4-19.3-13.7-17-25.4z"/><path class="c" d="m262.8 446.1c2.3-11.7 13.7-19.3 25.4-17l197.5 39.2c11.7 2.4 19.3 13.7 17 25.4l-41.6 209.5c-2.3 11.7-13.7 19.3-25.4 17l-197.5-39.2c-11.7-2.4-19.3-13.7-17-25.4z"/></g><path class="b" d="m521.7 497.5c2.3-11.7 13.7-19.3 25.4-17l197.5 39.2c11.7 2.3 19.2 13.7 16.9 25.4l-41.6 209.5c-2.3 11.7-13.6 19.3-25.3 16.9l-197.5-39.2c-11.7-2.3-19.3-13.6-17-25.3z"/><path class="c" d="m521.7 497.5c2.3-11.7 13.7-19.3 25.4-17l197.5 39.2c11.7 2.3 19.2 13.7 16.9 25.4l-41.6 209.5c-2.3 11.7-13.6 19.3-25.3 16.9l-197.5-39.2c-11.7-2.3-19.3-13.6-17-25.3z"/><path class="b" d="m114.3-139.1c2.3-11.7 13.7-19.3 25.4-17l197.5 39.2c11.7 2.3 19.3 13.7 16.9 25.4l-41.5 209.5c-2.4 11.7-13.7 19.3-25.4 16.9l-197.5-39.2c-11.7-2.3-19.3-13.6-17-25.3z"/><path class="c" d="m114.3-139.1c2.3-11.7 13.7-19.3 25.4-17l197.5 39.2c11.7 2.3 19.3 13.7 16.9 25.4l-41.5 209.5c-2.4 11.7-13.7 19.3-25.4 16.9l-197.5-39.2c-11.7-2.3-19.3-13.6-17-25.3z"/><g clip-path="url(#cp5)"><path class="b" d="m-97.9 930.2c2.3-11.7 13.6-19.2 25.3-16.9l197.5 39.2c11.7 2.3 19.3 13.6 17 25.3l-41.6 209.5c-2.3 11.7-13.7 19.3-25.4 17l-197.5-39.2c-11.7-2.3-19.2-13.7-16.9-25.4z"/><path class="c" d="m-97.9 930.2c2.3-11.7 13.6-19.2 25.3-16.9l197.5 39.2c11.7 2.3 19.3 13.6 17 25.3l-41.6 209.5c-2.3 11.7-13.7 19.3-25.4 17l-197.5-39.2c-11.7-2.3-19.2-13.7-16.9-25.4z"/><path class="c" d="m-93.7 909.1l239.8 47.6-59.5 299.8-239.8-47.6z"/><g clip-path="url(#cp6)"><path class="e" d="m119.1 979.8l1.3-6.6c0.2-1-0.5-2-1.5-2.2l-6.6-1.3c-1-0.2-2 0.4-2.2 1.5l-1.3 6.6c-0.2 1 0.5 2 1.5 2.2l6.6 1.3c1 0.1 2-0.5 2.2-1.5zm2.5-4.9l-1.1 5.7c-0.3 1.6-1.9 2.6-3.5 2.3l-5.6-1.1c-0.2-0.1-0.4 0.2-0.3 0.3 0.3 0.5 0.7 0.8 1.3 1l4.8 0.9c2 0.4 3.9-0.9 4.3-2.9l1-4.7c0.1-0.6-0.1-1.2-0.4-1.6-0.1-0.2-0.4-0.1-0.5 0.1z"/></g></g><path class="b" d="m61.5 126.8c2.3-11.7 13.7-19.3 25.4-17l197.5 39.2c11.7 2.4 19.3 13.7 17 25.4l-41.6 209.5c-2.3 11.7-13.7 19.3-25.4 17l-197.5-39.2c-11.7-2.4-19.3-13.7-17-25.4z"/><path class="c" d="m61.5 127.8c2.3-11.7 13.7-19.3 25.4-17l197.5 39.2c11.7 2.4 19.3 13.7 17 25.4l-41.6 209.5c-2.3 11.7-13.7 19.3-25.4 17l-197.5-39.2c-11.7-2.4-19.3-13.7-17-25.4z"/><g clip-path="url(#cp7)"><path class="b" d="m371.1-88.2c2.3-11.6 13.6-19.2 25.3-16.9l197.5 39.2c11.7 2.3 19.3 13.7 17 25.3l-41.6 209.5c-2.3 11.7-13.7 19.3-25.3 17l-197.6-39.2c-11.6-2.3-19.2-13.7-16.9-25.4z"/><path class="c" d="m373.1-109.7l254 50.4-62.9 316.7-253.9-50.4z"/><path class="c" d="m114.3-139.1c2.3-11.7 13.7-19.3 25.4-17l197.5 39.2c11.7 2.3 19.3 13.7 16.9 25.4l-41.5 209.5c-2.4 11.7-13.7 19.3-25.4 16.9l-197.5-39.2c-11.7-2.3-19.3-13.6-17-25.3z"/></g><path class="b" d="m158.8 981.2c2.3-11.7 13.7-19.3 25.4-17l454.2 90.2c11.7 2.3 19.3 13.7 17 25.4l-94.9 478.2c-2.3 11.7-13.7 19.3-25.4 17l-454.2-90.2c-11.7-2.3-19.3-13.7-17-25.4z"/><path class="c" d="m158.8 981.2c2.3-11.7 13.7-19.3 25.4-17l454.2 90.2c11.7 2.3 19.3 13.7 17 25.4l-94.9 478.2c-2.3 11.7-13.7 19.3-25.4 17l-454.2-90.2c-11.7-2.3-19.3-13.7-17-25.4z"/><g clip-path="url(#cp8)"><path class="b" d="m318.3 177.8c2.3-11.7 13.7-19.3 25.3-17l197.6 39.2c11.6 2.3 19.2 13.7 16.9 25.4l-41.6 209.5c-2.3 11.7-13.6 19.2-25.3 16.9l-197.5-39.2c-11.7-2.3-19.3-13.6-17-25.3z"/><path class="c" d="m318.3 177.8c2.3-11.7 13.7-19.3 25.3-17l197.6 39.2c11.6 2.3 19.2 13.7 16.9 25.4l-41.6 209.5c-2.3 11.7-13.6 19.2-25.3 16.9l-197.5-39.2c-11.7-2.3-19.3-13.6-17-25.3z"/><path class="g" d="m322.5 156.6l239.8 47.6-50 251.8-239.8-47.6z"/><g clip-path="url(#cp9)"><path class="h" d="m470.1 343.9l0.2-1.1"/><path class="h" d="m467.1 344.4l-0.6-0.9"/><path class="h" d="m466 350l-0.9 0.6"/><path class="h" d="m472.7 345.6l0.9-0.6"/><path class="h" d="m465.4 347l-1-0.2"/><path fill-rule="evenodd" class="h" d="m473.1 353.8l-2.4 2.9c-0.2 0.4-0.4 0.5-0.5 0.5q-0.2 0.1-0.3 0c-0.1-0.1-0.1-0.4-0.2-0.8l-0.9-8.4c0-0.3 0-0.5 0.1-0.6q0-0.2 0.2-0.2c0.1 0 0.3 0.1 0.6 0.2l7.4 4.1c0.4 0.2 0.6 0.3 0.6 0.4q0.1 0.2 0 0.3c-0.1 0.1-0.3 0.2-0.7 0.3l-3.6 1.1q-0.1 0-0.1 0.1 0 0-0.1 0 0 0-0.1 0.1z"/></g><g clip-path="url(#cp10)"><path class="i" d="m295.7 383.7c1.2-5.8 6.9-9.6 12.7-8.5 5.9 1.2 9.7 6.9 8.5 12.7-1.2 5.9-6.8 9.7-12.7 8.5-5.8-1.2-9.6-6.8-8.5-12.7z"/><path class="c" d="m297.8 373.1l21.2 4.2-4.2 21.2-21.2-4.2z"/><path class="c" d="m295.7 383.7c1.2-5.8 6.9-9.6 12.7-8.5 5.9 1.2 9.7 6.9 8.5 12.7-1.2 5.9-6.8 9.7-12.7 8.5-5.8-1.2-9.6-6.8-8.5-12.7z"/><path class="j" d="m296.1 383.8c1.1-5.7 6.6-9.3 12.2-8.2 5.7 1.1 9.4 6.6 8.2 12.2-1.1 5.7-6.6 9.4-12.2 8.2-5.7-1.1-9.3-6.6-8.2-12.2z"/></g><path fill-rule="evenodd" class="e" d="m319.7 391.5l1.3-6.1 1.1 0.2-1.1 5.2 2.8 0.6-0.2 0.9zm5.3 1.2q-0.4-0.1-0.7-0.4-0.4-0.2-0.5-0.5-0.1-0.4-0.1-0.8 0.1-0.4 0.3-0.7 0.2-0.2 0.5-0.3 0.3-0.1 0.6-0.1 0.3 0 0.7 0 0.4 0 0.7 0.1 0.2 0 0.3-0.1 0.2 0 0.2-0.2 0.1-0.3-0.1-0.6-0.2-0.2-0.5-0.3-0.4-0.1-0.7 0.1-0.3 0.1-0.4 0.3l-1-0.3q0.2-0.4 0.6-0.6 0.3-0.3 0.7-0.3 0.4-0.1 0.9 0 0.4 0.1 0.7 0.2 0.3 0.1 0.5 0.4 0.3 0.2 0.4 0.6 0.1 0.3 0 0.8l-0.6 3-1.1-0.2 0.2-0.6h-0.1q-0.1 0.2-0.3 0.3-0.2 0.1-0.5 0.2-0.3 0-0.7 0zm0.5-0.8q0.3 0.1 0.6 0 0.2-0.1 0.4-0.3 0.2-0.2 0.2-0.4l0.1-0.6q0 0.1-0.2 0.1-0.1 0-0.2 0-0.2 0-0.4 0-0.1 0-0.2 0-0.3-0.1-0.5 0-0.2 0-0.3 0.1-0.2 0.1-0.2 0.3-0.1 0.3 0.1 0.5 0.2 0.2 0.6 0.3zm5.7-0.1l0.5-2.7 1.1 0.2-0.9 4.6-1.1-0.2 0.2-0.8q-0.3 0.3-0.7 0.5-0.4 0.2-0.9 0.1-0.5-0.1-0.8-0.4-0.3-0.2-0.4-0.7-0.1-0.4 0-1l0.6-2.9 1.1 0.2-0.6 2.8q-0.1 0.4 0.1 0.7 0.2 0.3 0.6 0.4 0.2 0.1 0.5 0 0.2-0.1 0.4-0.3 0.2-0.2 0.3-0.5zm1.1 2.2l0.9-4.6 1.1 0.2-0.2 0.8h0.1q0.2-0.4 0.5-0.6 0.4-0.1 0.8 0 0.1 0 0.2 0 0.1 0 0.2 0.1l-0.2 0.9q0.1-0.2 0.3-0.3 0.4-0.3 0.8-0.3 0.4-0.1 0.9 0 0.3 0.1 0.6 0.2 0.4 0.2 0.6 0.4 0.2 0.2 0.3 0.6 0.1 0.3 0.1 0.8l-0.7 3.1-1-0.2 0.1-0.7q-0.2 0.2-0.4 0.3-0.2 0.1-0.5 0.2-0.3 0-0.6 0-0.5-0.1-0.8-0.3-0.3-0.3-0.4-0.6-0.2-0.4-0.1-0.8 0.1-0.4 0.3-0.6 0.2-0.3 0.5-0.4 0.2-0.1 0.6-0.1 0.3 0 0.6 0 0.5 0.1 0.7 0.1 0.3 0 0.4-0.1 0.1 0 0.2-0.2 0-0.3-0.1-0.6-0.2-0.2-0.6-0.3-0.4 0-0.6 0.1-0.3 0.1-0.4 0.3l-1-0.3q0.1-0.1 0.1-0.2 0-0.1-0.1-0.1-0.2-0.1-0.3-0.1-0.3 0-0.6 0-0.2 0.1-0.4 0.3-0.2 0.2-0.3 0.5l-0.5 2.7zm4.3 0.1q0.3 0.1 0.6 0 0.3-0.1 0.4-0.2 0.2-0.2 0.3-0.5l0.1-0.5q-0.1 0-0.2 0-0.1 0-0.3 0-0.1 0-0.3 0-0.1 0-0.3 0-0.2 0-0.4 0-0.2 0-0.4 0.2-0.1 0.1-0.1 0.3-0.1 0.3 0.1 0.5 0.2 0.2 0.5 0.2zm2.4 1.3l0.9-4.7 1.1 0.2-0.2 0.8h0.1q0.2-0.3 0.6-0.5 0.4-0.1 0.8-0.1 0.5 0.1 0.8 0.4 0.2 0.3 0.3 0.7 0.3-0.3 0.7-0.5 0.4-0.1 0.9 0 0.6 0.1 1 0.6 0.3 0.5 0.1 1.2l-0.6 3.1-1.1-0.2 0.6-2.9q0.1-0.4-0.1-0.7-0.2-0.2-0.5-0.3-0.4-0.1-0.7 0.1-0.3 0.2-0.3 0.6l-0.6 2.9-1.1-0.2 0.6-3q0.1-0.3-0.1-0.6-0.2-0.3-0.5-0.3-0.2-0.1-0.4 0-0.3 0.1-0.4 0.3-0.2 0.2-0.2 0.5l-0.6 2.8zm8.2 1.7q-0.4-0.1-0.8-0.3-0.3-0.2-0.4-0.6-0.2-0.3-0.1-0.8 0.1-0.4 0.3-0.6 0.2-0.2 0.5-0.3 0.3-0.2 0.6-0.2 0.3 0 0.7 0 0.4 0.1 0.6 0.1 0.3 0 0.4 0 0.2-0.1 0.2-0.2v-0.1q0.1-0.3-0.1-0.5-0.2-0.3-0.5-0.3-0.4-0.1-0.7 0-0.3 0.1-0.4 0.4l-1-0.4q0.2-0.4 0.5-0.6 0.4-0.2 0.8-0.3 0.4-0.1 0.9 0 0.4 0.1 0.7 0.2 0.3 0.2 0.5 0.4 0.3 0.3 0.4 0.6 0.1 0.3 0 0.8l-0.6 3.1-1.1-0.2 0.1-0.7q-0.1 0.2-0.3 0.3-0.3 0.2-0.5 0.2-0.3 0.1-0.7 0zm0.4-0.7q0.4 0 0.6-0.1 0.3-0.1 0.5-0.2 0.2-0.2 0.2-0.5l0.1-0.5q0 0-0.2 0-0.1 0-0.3 0-0.1 0-0.3 0-0.1 0-0.2 0-0.3 0-0.5 0-0.2 0.1-0.3 0.2-0.2 0.1-0.2 0.3-0.1 0.3 0.1 0.5 0.2 0.2 0.5 0.3zm4.6-2.3l-0.5 2.4q0 0.2 0 0.3 0.1 0.1 0.2 0.2 0.1 0.1 0.2 0.1 0.1 0 0.2 0 0.1 0 0.1 0l0.1 0.9q-0.1 0-0.3 0-0.2 0-0.4 0-0.4-0.1-0.7-0.3-0.3-0.2-0.5-0.5-0.1-0.4 0-0.8l0.5-2.6-0.6-0.1 0.1-0.8 0.7 0.1 0.2-1.1 1.1 0.2-0.2 1.1 0.7 0.2 0.7 0.1 0.2-1.1 1.1 0.2-0.2 1.1 0.9 0.2-0.2 0.8-0.9-0.1-0.5 2.3q0 0.3 0 0.4 0.1 0.1 0.2 0.2 0.1 0.1 0.2 0.1 0.1 0 0.2 0 0.1 0 0.1 0l0.1 0.9q-0.1 0-0.3 0-0.2 0-0.4 0-0.4-0.1-0.7-0.3-0.3-0.2-0.4-0.5-0.2-0.4-0.1-0.8l0.5-2.6-0.6-0.1zm4.6 2l-0.6 2.7-1.1-0.2 1.3-6.1 1 0.2-0.4 2.3q0.3-0.3 0.6-0.5 0.4-0.2 1-0.1 0.4 0.1 0.8 0.4 0.3 0.3 0.4 0.7 0.1 0.4 0 1l-0.6 2.9-1.1-0.2 0.6-2.7q0.1-0.5-0.1-0.8-0.2-0.3-0.6-0.4-0.3-0.1-0.6 0-0.2 0.1-0.4 0.3-0.2 0.2-0.2 0.5zm4.9 3.9q-0.7-0.1-1.2-0.5-0.4-0.4-0.6-1-0.2-0.6 0-1.3 0.1-0.7 0.5-1.2 0.4-0.5 0.9-0.7 0.6-0.2 1.2-0.1 0.5 0.1 0.8 0.3 0.4 0.2 0.6 0.6 0.2 0.3 0.3 0.8 0.1 0.5 0 1.1l-0.1 0.3-3.2-0.6q-0.1 0.4 0 0.7 0.1 0.3 0.3 0.5 0.3 0.2 0.6 0.3 0.3 0 0.5 0 0.2 0 0.4-0.1 0.1-0.1 0.2-0.3l1 0.3q-0.2 0.4-0.5 0.6-0.3 0.3-0.8 0.3-0.4 0.1-0.9 0zm-0.8-2.3q0 0 0 0l0.1-0.7q0 0 0.1 0l-0.6-0.2-0.2 0.8zm2.4-0.3q0-0.3-0.1-0.6-0.1-0.3-0.3-0.5-0.2-0.2-0.5-0.2-0.3-0.1-0.6 0-0.3 0.1-0.5 0.4-0.1 0.2-0.2 0.4zm1.6 3.2l-0.4-4.9 1.1 0.3 0.2 3.4h0.1l1.4-3.1 1.1 0.2 0.2 3.4h0.1l1.4-3.1 1.1 0.3-2.2 4.3-1.1-0.2-0.3-3.3h-0.1l-1.4 2.9zm9.7-1.6h-1q0-0.2-0.1-0.4-0.1-0.1-0.2-0.2-0.2-0.1-0.4-0.2-0.4-0.1-0.6 0-0.3 0.1-0.3 0.4-0.1 0.2 0 0.3 0.2 0.2 0.5 0.3l0.8 0.4q0.6 0.2 0.8 0.6 0.3 0.4 0.2 0.9-0.1 0.4-0.4 0.7-0.3 0.3-0.8 0.4-0.5 0.1-1.1 0-0.8-0.2-1.2-0.7-0.5-0.4-0.5-1.1l1.1 0.1q0 0.4 0.2 0.6 0.2 0.2 0.6 0.2 0.4 0.1 0.7 0 0.2-0.1 0.3-0.3 0-0.2-0.1-0.4-0.1-0.2-0.4-0.3l-0.8-0.3q-0.6-0.3-0.9-0.7-0.2-0.4-0.1-0.9 0-0.4 0.3-0.7 0.3-0.2 0.8-0.3 0.5-0.1 1 0 0.8 0.2 1.2 0.6 0.4 0.4 0.4 1z"/><g clip-path="url(#cp11)"><path fill-rule="evenodd" class="k" d="m444.7 407.7c1.2 0.9 1.8 2.4 1.5 4-0.3 1.6-1.2 2.7-2.3 3.5-0.8 0.6-1.8 1.1-2.6 1.5q-0.3 0.1-0.6 0.3c-0.4 0.2-0.7 0.4-1.1 0.5-0.4 0.1-0.8 0.2-1.2 0.1-0.4-0.1-0.7-0.3-1-0.6-0.3-0.2-0.6-0.5-0.8-0.8q-0.2-0.3-0.4-0.5c-0.7-0.7-1.4-1.5-1.9-2.4-0.7-1.2-1.1-2.5-0.8-4.1 0.3-1.6 1.5-2.8 2.9-3.1 1.4-0.3 2.9 0.1 4 1.6 1.6-0.9 3.1-0.8 4.3 0zm-8.1-0.7c-1 0.2-1.9 1.1-2.2 2.4-0.2 1.3 0.1 2.4 0.7 3.4 0.5 0.8 1.1 1.6 1.7 2.3q0.2 0.2 0.5 0.5 0.3 0.4 0.7 0.8 0.3 0.3 0.6 0.3 0.3 0.1 0.7-0.1 0.5-0.1 1-0.4 0.3-0.2 0.6-0.3c0.8-0.4 1.7-0.9 2.5-1.5 0.9-0.7 1.6-1.5 1.9-2.8 0.2-1.3-0.3-2.5-1.2-3.1-0.8-0.7-2.1-0.8-3.6 0.2q-0.1 0.1-0.3 0.1-0.2-0.1-0.3-0.2c-1-1.5-2.2-1.9-3.3-1.6z"/></g><path fill-rule="evenodd" class="l" d="m452.3 411.4l-1.3 6.2-0.9-0.2 1-5.2-1.7 0.6 0.2-0.8 1.8-0.7zm0.4 6.4l0.1-0.6 2.5-1.8q0.4-0.3 0.7-0.5 0.3-0.2 0.4-0.4 0.2-0.2 0.3-0.5 0-0.3-0.1-0.6-0.1-0.2-0.3-0.4-0.2-0.2-0.5-0.2-0.4-0.1-0.7 0-0.2 0.1-0.4 0.3-0.2 0.2-0.3 0.5l-0.8-0.1q0.1-0.6 0.4-1 0.4-0.3 0.9-0.5 0.4-0.1 1 0 0.6 0.1 1 0.4 0.4 0.4 0.6 0.8 0.1 0.4 0 0.9 0 0.4-0.2 0.7-0.2 0.3-0.6 0.6-0.4 0.4-1.1 0.8l-1.5 1.1 2.8 0.6-0.1 0.7zm7.3 1.6q-0.7-0.1-1.2-0.6-0.4-0.5-0.5-1.2-0.2-0.8 0-1.8 0.2-1 0.6-1.7 0.5-0.6 1-0.9 0.6-0.3 1.3-0.1 0.7 0.1 1.2 0.6 0.4 0.5 0.5 1.2 0.1 0.8-0.1 1.8-0.2 1-0.6 1.6-0.4 0.7-0.9 1-0.6 0.2-1.3 0.1zm0.1-0.8q0.6 0.1 1.1-0.4 0.5-0.6 0.7-1.7 0.2-0.8 0.1-1.3 0-0.6-0.3-0.9-0.2-0.4-0.6-0.4-0.7-0.2-1.1 0.4-0.5 0.5-0.7 1.7-0.2 0.7-0.1 1.3 0 0.6 0.3 0.9 0.2 0.3 0.6 0.4z"/><g clip-path="url(#cp12)"><path class="k" d="m478.5 420c0 0.3-0.3 0.5-0.7 0.4-0.3 0-0.5-0.3-0.4-0.7 0-0.3 0.4-0.5 0.7-0.4 0.3 0 0.5 0.3 0.4 0.7z"/><path class="k" d="m480.9 420.4c-0.1 0.4-0.4 0.6-0.7 0.5-0.3-0.1-0.5-0.4-0.5-0.7 0.1-0.3 0.4-0.5 0.7-0.5 0.4 0.1 0.6 0.4 0.5 0.7z"/><path class="k" d="m483.3 420.9c-0.1 0.3-0.4 0.5-0.8 0.5-0.3-0.1-0.5-0.4-0.4-0.7 0-0.4 0.4-0.6 0.7-0.5 0.3 0.1 0.5 0.4 0.5 0.7z"/><path fill-rule="evenodd" class="k" d="m479.1 426.6c-1.1-0.2-2-0.6-2.7-1.2q-0.2-0.1-0.4-0.1l-1.4 0.1c-0.9 0-1.6-0.9-1.1-1.8l0.6-1.2q0-0.2 0-0.4c-0.3-0.9-0.3-1.9-0.1-2.9 0.7-3.5 4.1-5.8 7.6-5.1 3.5 0.7 5.7 4.1 5 7.6-0.7 3.5-4.1 5.7-7.5 5zm-4.2-7.4c-0.2 0.9-0.2 1.8 0.1 2.6 0 0.3 0 0.7-0.1 1l-0.6 1.2c-0.1 0.2 0 0.5 0.3 0.5l1.4-0.1c0.3 0 0.7 0.1 0.9 0.3 0.7 0.5 1.5 0.9 2.3 1.1 3 0.6 6-1.4 6.5-4.4 0.6-3-1.3-5.9-4.3-6.5-3-0.6-5.9 1.3-6.5 4.3z"/></g><path fill-rule="evenodd" class="l" d="m491.6 425.7q-0.4 0-0.7-0.3-0.4-0.2-0.7-0.6-0.2-0.4-0.3-1-0.1-0.6 0.1-1.5 0.1-0.8 0.4-1.4 0.3-0.6 0.7-0.9 0.4-0.4 0.9-0.5 0.4-0.2 1-0.1 0.5 0.1 0.9 0.4 0.4 0.3 0.6 0.8 0.2 0.4 0.2 0.9l-1-0.2q0-0.4-0.2-0.7-0.2-0.3-0.7-0.4-0.7-0.1-1.2 0.4-0.4 0.5-0.7 1.6h0.1q0.2-0.2 0.5-0.4 0.2-0.1 0.5-0.2 0.4 0 0.7 0.1 0.5 0.1 0.9 0.4 0.4 0.4 0.5 0.9 0.2 0.5 0.1 1.1-0.1 0.6-0.5 1-0.3 0.4-0.9 0.6-0.5 0.2-1.2 0zm0.2-0.7q0.4 0 0.7-0.1 0.3-0.1 0.5-0.4 0.2-0.2 0.3-0.6 0.1-0.4 0-0.7-0.1-0.3-0.4-0.5-0.2-0.2-0.6-0.3-0.2-0.1-0.5 0-0.2 0-0.4 0.2-0.2 0.1-0.4 0.4-0.1 0.2-0.2 0.4-0.1 0.4 0 0.7 0.2 0.3 0.4 0.6 0.2 0.2 0.6 0.3zm5.2 1.8q-0.7-0.1-1.1-0.5-0.5-0.3-0.7-0.7-0.2-0.5-0.1-1 0.1-0.4 0.3-0.7 0.2-0.2 0.6-0.4 0.3-0.2 0.7-0.2-0.5-0.2-0.7-0.6-0.2-0.5-0.1-1 0.1-0.4 0.4-0.8 0.4-0.3 0.9-0.4 0.4-0.1 1 0 0.6 0.1 1 0.4 0.4 0.3 0.6 0.7 0.1 0.4 0.1 0.9-0.1 0.5-0.5 0.8-0.4 0.4-0.8 0.4 0.3 0.1 0.5 0.4 0.3 0.3 0.4 0.7 0.1 0.3 0 0.7-0.1 0.5-0.5 0.8-0.3 0.4-0.9 0.5-0.5 0.1-1.1 0zm0.1-0.8q0.4 0.1 0.7 0 0.3 0 0.5-0.2 0.2-0.2 0.3-0.5 0-0.4-0.1-0.6-0.1-0.3-0.4-0.5-0.2-0.2-0.6-0.3-0.3-0.1-0.6 0-0.4 0.1-0.6 0.3-0.2 0.2-0.2 0.6-0.1 0.3 0 0.5 0.1 0.3 0.4 0.5 0.2 0.2 0.6 0.2zm0.6-2.8q0.3 0 0.5 0 0.3-0.1 0.5-0.3 0.2-0.2 0.2-0.5 0.1-0.3 0-0.5-0.1-0.3-0.3-0.4-0.2-0.2-0.5-0.3-0.4 0-0.6 0-0.3 0.1-0.5 0.3-0.1 0.2-0.2 0.5 0 0.3 0 0.5 0.1 0.3 0.3 0.4 0.3 0.2 0.6 0.3z"/></g><path class="b" d="m627.8-37.2c2.3-11.7 13.7-19.3 25.4-17l197.5 39.2c11.7 2.4 19.3 13.7 17 25.4l-94.4 475.4c-2.3 11.7-13.7 19.3-25.4 17l-197.5-39.2c-11.7-2.3-19.3-13.7-16.9-25.4z"/><path class="c" d="m627.8-37.2c2.3-11.7 13.7-19.3 25.4-17l197.5 39.2c11.7 2.4 19.3 13.7 17 25.4l-94.4 475.4c-2.3 11.7-13.7 19.3-25.4 17l-197.5-39.2c-11.7-2.3-19.3-13.7-16.9-25.4z"/><path class="b" d="m6.1 395.1c2.3-11.7 13.6-19.2 25.3-16.9l197.5 39.2c11.7 2.3 19.3 13.6 17 25.3l-94.4 475.5c-2.3 11.7-13.6 19.2-25.3 16.9l-197.5-39.2c-11.7-2.3-19.3-13.7-17-25.3z"/><path class="c" d="m6.1 395.1c2.3-11.7 13.6-19.2 25.3-16.9l197.5 39.2c11.7 2.3 19.3 13.6 17 25.3l-94.4 475.5c-2.3 11.7-13.6 19.2-25.3 16.9l-197.5-39.2c-11.7-2.3-19.3-13.7-17-25.3z"/><g clip-path="url(#cp13)"><path fill-rule="evenodd" class="e" d="m221.1 434.3l0.1 0.1c1.6 0.3 2.9 0.5 3.9 0.9 1 0.3 1.7 0.7 2.2 1.5 0.5 0.8 0.7 1.6 0.6 2.7-0.1 1-0.3 2.3-0.6 3.9l-0.1 0.1c-0.3 1.6-0.5 2.9-0.9 3.8-0.3 1-0.8 1.8-1.5 2.3-0.8 0.5-1.6 0.6-2.7 0.6-1-0.1-2.3-0.4-3.9-0.7h-0.1c-1.6-0.3-2.9-0.6-3.9-0.9-0.9-0.3-1.7-0.8-2.2-1.5-0.5-0.8-0.6-1.7-0.6-2.7 0.1-1 0.3-2.3 0.7-3.9v-0.1c0.3-1.6 0.6-2.9 0.9-3.9 0.3-1 0.8-1.7 1.5-2.2 0.8-0.5 1.7-0.7 2.7-0.6 1 0.1 2.3 0.3 3.9 0.6zm-4 0.5c-0.9-0.1-1.5 0-2 0.4-0.4 0.3-0.8 0.8-1.1 1.7q-0.1 0.2-0.1 0.4l2.6 0.5 2.7-2.7q-1.2-0.3-2.1-0.3zm3.3 0.5q0 0-0.1 0.1l-2.5 2.7 3.3 0.6 2.6-2.7c-0.7-0.2-1.6-0.4-2.7-0.6q-0.3-0.1-0.6-0.1zm4.5 1l-2.6 2.7 4.5 0.9q0-0.3 0-0.5c0.1-0.9 0-1.5-0.4-2-0.3-0.5-0.7-0.8-1.5-1.1zm1.7 4.6l-5.4-1.1q0 0 0 0l-4.6-0.9q0 0 0 0l-3-0.6q-0.2 1-0.5 2.3c-0.3 1.7-0.5 2.9-0.6 3.9-0.1 0.9 0.1 1.5 0.4 2 0.3 0.4 0.8 0.8 1.7 1.1 0.9 0.3 2.1 0.5 3.8 0.9 1.6 0.3 2.8 0.5 3.8 0.6 0.9 0 1.5-0.1 2-0.4 0.5-0.3 0.8-0.8 1.1-1.7 0.3-0.9 0.6-2.1 0.9-3.8q0.3-1.3 0.4-2.3zm-6 1.2h0.1q0.6 0.6 0.9 1c0.3 0.3 0.4 0.7 0.4 1.1-0.1 0.5-0.4 0.7-0.8 0.9q-0.5 0.3-1.2 0.6h-0.1c-0.5 0.2-0.9 0.4-1.3 0.4-0.3 0.1-0.8 0.2-1.1-0.2-0.4-0.3-0.4-0.7-0.4-1.1q0.1-0.6 0.3-1.5 0.1-0.9 0.3-1.4c0.1-0.4 0.3-0.8 0.8-1 0.4-0.1 0.8 0 1.1 0.3 0.3 0.2 0.7 0.5 1 0.9zm-1.9 0.1c-0.1 0.3-0.1 0.7-0.3 1.3-0.1 0.6-0.2 1.1-0.2 1.3q0 0.3 0 0.3 0.1 0 0.2 0c0.3-0.1 0.6-0.2 1.2-0.4 0.5-0.2 0.9-0.4 1.1-0.5 0.2-0.1 0.2-0.2 0.2-0.2 0 0 0-0.1-0.1-0.2-0.2-0.3-0.5-0.5-0.9-0.9-0.4-0.4-0.7-0.7-0.9-0.9q-0.1 0-0.2 0 0 0-0.1 0.2zm0.1-0.3q0 0 0 0 0 0 0 0zm-0.6 3.2q0 0 0 0 0 0 0 0zm0 0q0 0 0 0 0 0 0 0zm0.7-3.2q0 0 0 0 0 0 0 0z"/></g></g></g></svg>